# Blender v2.91.0 OBJ File: 'Marching_Sqaures_2x2.blend'
# www.blender.org
mtllib Case_1.mtl
g Case_1.001_Cube.362
v 1.000000 0.000000 -0.000000
v 1.000000 2.000000 -0.000000
v 0.000000 0.000000 1.000000
v 0.000000 2.000000 1.000000
v 0.000000 2.000000 0.000000
v 0.000000 0.000000 0.000000
v 1.000000 2.000000 1.000000
v 1.000000 0.000000 1.000000
v 1.000000 2.000000 0.000000
v 0.000000 2.000000 1.000000
v 0.000000 2.000000 0.000000
v 1.000000 0.000000 -0.000000
v 0.000000 0.000000 1.000000
v 0.000000 0.000000 -0.000000
vt 0.125846 0.750135
vt 0.125846 0.999997
vt 0.000146 0.999997
vt 0.000146 0.750135
vt 0.250289 0.750135
vt 0.250289 0.999997
vt 0.125016 0.750017
vt -0.000009 0.750017
vt -0.000009 0.625017
vt 0.125016 0.625017
vt 0.250050 0.625022
vt 0.375018 0.625022
vt 0.375018 0.500048
vt 0.250050 0.500048
vn 1.0000 0.0000 -0.0000
vn 0.0000 0.0000 1.0000
vn 0.0000 -1.0000 0.0000
vn 0.0000 1.0000 0.0000
usemtl Material
s off
f 6/1/1 5/2/1 4/3/1 3/4/1
f 1/5/2 2/6/2 5/2/2 6/1/2
f 9/7/3 7/8/3 10/9/3 11/10/3
f 12/11/4 14/12/4 13/13/4 8/14/4
