# Blender v2.91.0 OBJ File: 'Marching_Sqaures_2x2.blend'
# www.blender.org
mtllib Case_15.mtl
g Case_15.001_Cube.371
v -1.000000 0.000000 1.000000
v -1.000000 2.000000 1.000001
v 1.000000 2.000000 1.000000
v -1.000000 2.000000 -1.000000
v -1.000000 0.000000 -1.000000
v 1.000000 2.000000 -1.000000
v 1.000000 0.000000 -1.000000
v 1.000000 0.000000 1.000000
vt 0.250050 0.749997
vt 0.499987 0.749997
vt 0.499987 0.500048
vt 0.250050 0.500048
vt 0.250041 0.750017
vt -0.000009 0.750017
vt -0.000009 0.500017
vt 0.250041 0.500018
vn 0.0000 1.0000 0.0000
vn 0.0000 -1.0000 0.0000
usemtl Material
s off
f 7/1/1 5/2/1 1/3/1 8/4/1
f 6/5/2 3/6/2 2/7/2 4/8/2
