# Blender v2.91.0 OBJ File: 'Marching_Sqaures_2x2.blend'
# www.blender.org
mtllib Case_12.mtl
g Case_12.001_Cube.369
v -0.000000 0.000000 0.000000
v -0.000000 2.000000 0.000000
v -1.000000 2.000000 0.000000
v -1.000000 0.000000 0.000000
v 1.000000 2.000000 -0.000000
v 1.000000 0.000000 -0.000000
v -1.000000 2.000000 -1.000000
v -1.000000 0.000000 -1.000000
v 1.000000 2.000000 -1.000000
v 1.000000 0.000000 -1.000000
v 1.000000 2.000000 0.000000
v -1.000000 2.000000 0.000001
v 1.000000 0.000000 -0.000000
v -1.000000 0.000000 -0.000000
vt 0.125846 0.750135
vt 0.125846 0.999997
vt 0.000146 0.999997
vt 0.000146 0.750135
vt 0.250289 0.750135
vt 0.250289 0.999997
vt 0.125846 0.999997
vt 0.125846 0.750135
vt 0.250041 0.750017
vt 0.125016 0.750017
vt 0.125016 0.500017
vt 0.250041 0.500018
vt 0.250050 0.749997
vt 0.499987 0.749997
vt 0.499987 0.625022
vt 0.250050 0.625022
vn -0.0000 0.0000 -1.0000
vn 0.0000 -1.0000 0.0000
vn 0.0000 1.0000 0.0000
usemtl Material
s off
f 4/1/1 3/2/1 2/3/1 1/4/1
f 1/5/1 2/6/1 5/7/1 6/8/1
f 9/9/2 11/10/2 12/11/2 7/12/2
f 10/13/3 8/14/3 14/15/3 13/16/3
