# Blender v2.91.0 OBJ File: 'Marching_Sqaures_2x2.blend'
# www.blender.org
mtllib Case_7.mtl
g Case_7.001_Cube.378
v 0.000000 0.000000 -1.000000
v 0.000000 2.000000 -1.000000
v 1.000000 0.000000 0.000000
v 1.000000 2.000000 0.000000
v 0.000000 2.000000 0.000000
v 0.000000 0.000000 0.000000
v -1.000000 0.000000 1.000000
v -1.000000 2.000000 1.000001
v 1.000000 2.000000 1.000000
v -1.000000 2.000000 -1.000000
v -1.000000 0.000000 -1.000000
v 1.000000 2.000000 -1.000000
v 1.000000 0.000000 -1.000000
v 1.000000 0.000000 1.000000
vt 0.125846 0.750135
vt 0.125846 0.999997
vt 0.000146 0.999997
vt 0.000146 0.750135
vt 0.250289 0.750135
vt 0.250289 0.999997
vt 0.250050 0.749997
vt 0.499987 0.749997
vt 0.499987 0.500048
vt 0.250050 0.500048
vt 0.250041 0.750017
vt -0.000009 0.750017
vt -0.000009 0.500017
vt 0.250041 0.500018
vn -1.0000 0.0000 -0.0000
vn -0.0000 0.0000 1.0000
vn 0.0000 1.0000 0.0000
vn 0.0000 -1.0000 0.0000
usemtl Material
s off
f 6/1/1 5/2/1 2/3/1 1/4/1
f 3/5/2 4/6/2 5/2/2 6/1/2
f 13/7/3 11/8/3 7/9/3 14/10/3
f 12/11/4 9/12/4 8/13/4 10/14/4
