# Blender v2.91.0 OBJ File: 'Marching_Sqaures_2x2.blend'
# www.blender.org
mtllib Case_2.mtl
g Case_2.001_Cube.361
v -1.000000 2.000000 1.000000
v -1.000000 0.000000 1.000000
v 0.000000 0.000000 1.000000
v 0.000000 2.000000 1.000000
v -1.000000 0.000000 0.000000
v -1.000000 2.000000 0.000000
v 0.000000 2.000000 0.000000
v 0.000000 0.000000 0.000000
vt 0.250043 0.749991
vt 0.250043 0.500054
vt 0.499993 0.500054
vt 0.499993 0.749991
vt 0.250016 0.499992
vt 0.250016 0.750042
vt 0.000016 0.750042
vt 0.000016 0.499992
vt 0.125846 0.750135
vt 0.125846 0.999997
vt 0.000146 0.999997
vt 0.000146 0.750135
vt 0.250289 0.750135
vt 0.250289 0.999997
vn 0.0000 1.0000 0.0000
vn 0.0000 -1.0000 0.0000
vn 0.0000 0.0000 1.0000
vn -1.0000 0.0000 0.0000
usemtl Material
s off
f 5/1/1 2/2/1 3/3/1 8/4/1
f 6/5/2 7/6/2 4/7/2 1/8/2
f 8/9/3 7/10/3 6/11/3 5/12/3
f 3/13/4 4/14/4 7/10/4 8/9/4
