# Blender v2.91.0 OBJ File: 'Marching_Sqaures_2x2.blend'
# www.blender.org
mtllib Case_4.mtl
g Case_4.001_Cube.375
v 0.024787 0.000000 -0.000000
v -1.000000 0.000000 0.000000
v -1.000000 2.000000 -1.000000
v -1.000000 0.000000 -1.000000
v 0.024787 0.000000 -1.000000
v 0.000000 2.000000 -1.000000
v -1.000000 2.000000 0.000000
v 0.000000 2.000000 0.000000
v -1.000000 0.000000 -0.000000
v -1.000000 2.000000 -0.000000
v 0.000000 0.000000 -1.000000
v 0.000000 2.000000 -1.000000
v 0.000000 2.000000 0.000000
v 0.000000 0.000000 0.000000
vt 0.371921 0.749997
vt 0.499987 0.749997
vt 0.499987 0.625022
vt 0.371921 0.625022
vt 0.250041 0.625017
vt 0.125016 0.625017
vt 0.125016 0.500017
vt 0.250041 0.500018
vt 0.125846 0.750135
vt 0.125846 0.999997
vt 0.000146 0.999997
vt 0.000146 0.750135
vt 0.250289 0.750135
vt 0.250289 0.999997
vn 0.0000 1.0000 0.0000
vn 0.0000 -1.0000 0.0000
vn -1.0000 0.0000 -0.0000
vn 0.0000 0.0000 -1.0000
usemtl Material
s off
f 5/1/1 4/2/1 2/3/1 1/4/1
f 6/5/2 8/6/2 7/7/2 3/8/2
f 14/9/3 13/10/3 12/11/3 11/12/3
f 9/13/4 10/14/4 13/10/4 14/9/4
